<?xml version="1.0" encoding="UTF-8" standalone="no"?>
<svg width="55px" height="55px" viewBox="0 0 55 55" version="1.1" xmlns="http://www.w3.org/2000/svg" xmlns:xlink="http://www.w3.org/1999/xlink">
    <!-- Generator: Sketch 3.7.2 (28276) - http://www.bohemiancoding.com/sketch -->
    <title>Moon Group</title>
    <desc>Created with Sketch.</desc>
    <defs></defs>
    <g id="Desktop" stroke="none" stroke-width="1" fill="none" fill-rule="evenodd">
        <g id="2nd-View" transform="translate(-207.000000, -680.000000)" stroke="#4D158F">
            <g id="Super-Moon-Copy" transform="translate(208.000000, 681.000000)">
                <g id="Moon-Group">
                    <path d="M5.05114685,25.0511468 C4.40964266,25.692651 4.83899708,25.3324123 4.83899708,25.3324123 C4.66643373,26.3045152 4.50108902,26.282043 4.21408992,25.3324123 C4.21408992,25.3324123 4.64344434,25.692651 4.00194014,25.0511468 C3.36043595,24.4096427 3.72067474,24.8389971 3.72067474,24.8389971 C2.74857183,24.6664337 2.77104403,24.501089 3.72067474,24.2140899 C3.72067474,24.2140899 3.36043595,24.6434443 4.00194014,24.0019401 C4.64344434,23.360436 4.21408992,23.7206747 4.21408992,23.7206747 C4.38665326,22.7485718 4.55199798,22.771044 4.83899708,23.7206747 C4.83899708,23.7206747 4.40964266,23.360436 5.05114685,24.0019401 C5.69265104,24.6434443 5.33241226,24.2140899 5.33241226,24.2140899 C6.30451516,24.3866533 6.28204296,24.551998 5.33241226,24.8389971 C5.33241226,24.8389971 5.69265104,24.4096427 5.05114685,25.0511468 L5.05114685,25.0511468 Z" id="Star-1-Copy-3"></path>
                    <path d="M44.7334773,28.5089875 C44.0919731,29.1504917 44.5213275,28.7902529 44.5213275,28.7902529 C44.3487641,29.7623558 44.1834194,29.7398836 43.8964203,28.7902529 C43.8964203,28.7902529 44.3257748,29.1504917 43.6842706,28.5089875 C43.0427664,27.8674833 43.4030052,28.2968377 43.4030052,28.2968377 C42.4309023,28.1242744 42.4533745,27.9589296 43.4030052,27.6719305 C43.4030052,27.6719305 43.0427664,28.101285 43.6842706,27.4597808 C44.3257748,26.8182766 43.8964203,27.1785154 43.8964203,27.1785154 C44.0689837,26.2064125 44.2343284,26.2288847 44.5213275,27.1785154 C44.5213275,27.1785154 44.0919731,26.8182766 44.7334773,27.4597808 C45.3749815,28.101285 45.0147427,27.6719305 45.0147427,27.6719305 C45.9868456,27.8444939 45.9643734,28.0098386 45.0147427,28.2968377 C45.0147427,28.2968377 45.3749815,27.8674833 44.7334773,28.5089875 L44.7334773,28.5089875 Z" id="Star-1-Copy-5"></path>
                    <ellipse id="Oval-9" cx="26.5" cy="26.5" rx="12.5" ry="12.5"></ellipse>
                    <path d="M21.0511468,46.0511468 C20.4096427,46.692651 20.8389971,46.3324123 20.8389971,46.3324123 C20.6664337,47.3045152 20.501089,47.282043 20.2140899,46.3324123 C20.2140899,46.3324123 20.6434443,46.692651 20.0019401,46.0511468 C19.360436,45.4096427 19.7206747,45.8389971 19.7206747,45.8389971 C18.7485718,45.6664337 18.771044,45.501089 19.7206747,45.2140899 C19.7206747,45.2140899 19.360436,45.6434443 20.0019401,45.0019401 C20.6434443,44.360436 20.2140899,44.7206747 20.2140899,44.7206747 C20.3866533,43.7485718 20.551998,43.771044 20.8389971,44.7206747 C20.8389971,44.7206747 20.4096427,44.360436 21.0511468,45.0019401 C21.692651,45.6434443 21.3324123,45.2140899 21.3324123,45.2140899 C22.3045152,45.3866533 22.282043,45.551998 21.3324123,45.8389971 C21.3324123,45.8389971 21.692651,45.4096427 21.0511468,46.0511468 L21.0511468,46.0511468 Z" id="Star-1-Copy-2"></path>
                    <path d="M37.0511468,44.0511468 C36.4096427,44.692651 36.8389971,44.3324123 36.8389971,44.3324123 C36.6664337,45.3045152 36.501089,45.282043 36.2140899,44.3324123 C36.2140899,44.3324123 36.6434443,44.692651 36.0019401,44.0511468 C35.360436,43.4096427 35.7206747,43.8389971 35.7206747,43.8389971 C34.7485718,43.6664337 34.771044,43.501089 35.7206747,43.2140899 C35.7206747,43.2140899 35.360436,43.6434443 36.0019401,43.0019401 C36.6434443,42.360436 36.2140899,42.7206747 36.2140899,42.7206747 C36.3866533,41.7485718 36.551998,41.771044 36.8389971,42.7206747 C36.8389971,42.7206747 36.4096427,42.360436 37.0511468,43.0019401 C37.692651,43.6434443 37.3324123,43.2140899 37.3324123,43.2140899 C38.3045152,43.3866533 38.282043,43.551998 37.3324123,43.8389971 C37.3324123,43.8389971 37.692651,43.4096427 37.0511468,44.0511468 L37.0511468,44.0511468 Z" id="Star-1-Copy-6"></path>
                    <path d="M14.0511468,11.0511468 C13.4096427,11.692651 13.8389971,11.3324123 13.8389971,11.3324123 C13.6664337,12.3045152 13.501089,12.282043 13.2140899,11.3324123 C13.2140899,11.3324123 13.6434443,11.692651 13.0019401,11.0511468 C12.360436,10.4096427 12.7206747,10.8389971 12.7206747,10.8389971 C11.7485718,10.6664337 11.771044,10.501089 12.7206747,10.2140899 C12.7206747,10.2140899 12.360436,10.6434443 13.0019401,10.0019401 C13.6434443,9.36043595 13.2140899,9.72067474 13.2140899,9.72067474 C13.3866533,8.74857183 13.551998,8.77104403 13.8389971,9.72067474 C13.8389971,9.72067474 13.4096427,9.36043595 14.0511468,10.0019401 C14.692651,10.6434443 14.3324123,10.2140899 14.3324123,10.2140899 C15.3045152,10.3866533 15.282043,10.551998 14.3324123,10.8389971 C14.3324123,10.8389971 14.692651,10.4096427 14.0511468,11.0511468 L14.0511468,11.0511468 Z" id="Star-1-Copy-4"></path>
                    <path d="M36.0511468,8.05114685 C35.4096427,8.69265104 35.8389971,8.33241226 35.8389971,8.33241226 C35.6664337,9.30451516 35.501089,9.28204296 35.2140899,8.33241226 C35.2140899,8.33241226 35.6434443,8.69265104 35.0019401,8.05114685 C34.360436,7.40964266 34.7206747,7.83899708 34.7206747,7.83899708 C33.7485718,7.66643373 33.771044,7.50108902 34.7206747,7.21408992 C34.7206747,7.21408992 34.360436,7.64344434 35.0019401,7.00194014 C35.6434443,6.36043595 35.2140899,6.72067474 35.2140899,6.72067474 C35.3866533,5.74857183 35.551998,5.77104403 35.8389971,6.72067474 C35.8389971,6.72067474 35.4096427,6.36043595 36.0511468,7.00194014 C36.692651,7.64344434 36.3324123,7.21408992 36.3324123,7.21408992 C37.3045152,7.38665326 37.282043,7.55199798 36.3324123,7.83899708 C36.3324123,7.83899708 36.692651,7.40964266 36.0511468,8.05114685 L36.0511468,8.05114685 Z" id="Star-1-Copy-7"></path>
                    <ellipse id="Oval-1" cx="26.5" cy="26.5" rx="26.5" ry="26.5"></ellipse>
                    <ellipse id="Oval-11-Copy" cx="31" cy="21" rx="2" ry="2"></ellipse>
                    <ellipse id="Path" fill="#EBF3FC" cx="29.5" cy="22.5" rx="1.5" ry="1.5"></ellipse>
                    <ellipse id="Path-Copy-5" transform="translate(21.279630, 20.395849) rotate(-261.000000) translate(-21.279630, -20.395849) " cx="21.2796295" cy="20.3958489" rx="1.44585568" ry="1.44585568"></ellipse>
                    <ellipse id="Path-Copy-2" fill="#FFFFFF" transform="translate(17.838605, 26.202240) rotate(-261.000000) translate(-17.838605, -26.202240) " cx="17.8386049" cy="26.2022399" rx="0.783288078" ry="0.783288078"></ellipse>
                    <ellipse id="Path-Copy-4" fill="#FFFFFF" transform="translate(30.909741, 32.699520) rotate(-261.000000) translate(-30.909741, -32.699520) " cx="30.909741" cy="32.6995199" rx="0.783288078" ry="0.783288078"></ellipse>
                    <ellipse id="Path-Copy-3" fill="#FFFFFF" transform="translate(28.988209, 17.116350) rotate(-261.000000) translate(-28.988209, -17.116350) " cx="28.9882095" cy="17.1163502" rx="0.783288078" ry="0.783288078"></ellipse>
                    <ellipse id="Oval-11-Copy-2" transform="translate(24.103635, 32.826437) rotate(-261.000000) translate(-24.103635, -32.826437) " cx="24.1036355" cy="32.8264367" rx="2.63585902" ry="2.63585902"></ellipse>
                </g>
            </g>
        </g>
    </g>
</svg>