<?xml version="1.0" encoding="UTF-8" standalone="no"?>
<svg width="55px" height="55px" viewBox="0 0 55 55" version="1.1" xmlns="http://www.w3.org/2000/svg" xmlns:xlink="http://www.w3.org/1999/xlink">
    <!-- Generator: Sketch 3.7.2 (28276) - http://www.bohemiancoding.com/sketch -->
    <title>Star Group</title>
    <desc>Created with Sketch.</desc>
    <defs>
        <polygon id="path-1" points="14.872449 27.8520408 32.4489796 26.5 29.3962137 36.2346939 18.3877552 34.6122452"></polygon>
        <mask id="mask-2" maskContentUnits="userSpaceOnUse" maskUnits="objectBoundingBox" x="0" y="0" width="17.5765306" height="9.73469388" fill="white">
            <use xlink:href="#path-1"></use>
        </mask>
    </defs>
    <g id="Desktop" stroke="none" stroke-width="1" fill="none" fill-rule="evenodd">
        <g id="2nd-View" transform="translate(-207.000000, -344.000000)" stroke="#4D158F">
            <g id="Big-Dipper-Copy" transform="translate(208.000000, 345.000000)">
                <g id="Star-Group">
                    <path d="M21.2531771,15.453174 C20.6116729,16.0946782 21.0410273,15.7344394 21.0410273,15.7344394 C20.868464,16.7065423 20.7031193,16.6840701 20.4161202,15.7344394 C20.4161202,15.7344394 20.8454746,16.0946782 20.2039704,15.453174 C19.5624662,14.8116698 19.922705,15.2410242 19.922705,15.2410242 C18.9506021,15.0684609 18.9730743,14.9031161 19.922705,14.616117 C19.922705,14.616117 19.5624662,15.0454715 20.2039704,14.4039673 C20.8454746,13.7624631 20.4161202,14.1227019 20.4161202,14.1227019 C20.5886835,13.150599 20.7540282,13.1730712 21.0410273,14.1227019 C21.0410273,14.1227019 20.6116729,13.7624631 21.2531771,14.4039673 C21.8946813,15.0454715 21.5344425,14.616117 21.5344425,14.616117 C22.5065454,14.7886804 22.4840732,14.9540251 21.5344425,15.2410242 C21.5344425,15.2410242 21.8946813,14.8116698 21.2531771,15.453174 L21.2531771,15.453174 Z" id="Star-1"></path>
                    <path d="M8.49878339,19.3151099 C7.8572792,19.9566141 8.28663362,19.5963753 8.28663362,19.5963753 C8.11407027,20.5684782 7.94872556,20.546006 7.66172646,19.5963753 C7.66172646,19.5963753 8.09108088,19.9566141 7.44957669,19.3151099 C6.80807249,18.6736057 7.16831128,19.1029601 7.16831128,19.1029601 C6.19620837,18.9303968 6.21868058,18.7650521 7.16831128,18.478053 C7.16831128,18.478053 6.80807249,18.9074074 7.44957669,18.2659032 C8.09108088,17.624399 7.66172646,17.9846378 7.66172646,17.9846378 C7.83428981,17.0125349 7.99963452,17.0350071 8.28663362,17.9846378 C8.28663362,17.9846378 7.8572792,17.624399 8.49878339,18.2659032 C9.14028758,18.9074074 8.7800488,18.478053 8.7800488,18.478053 C9.7521517,18.6506163 9.7296795,18.815961 8.7800488,19.1029601 C8.7800488,19.1029601 9.14028758,18.6736057 8.49878339,19.3151099 L8.49878339,19.3151099 Z" id="Star-1-Copy-3"></path>
                    <use id="Rectangle-7" mask="url(#mask-2)" stroke-width="2" xlink:href="#path-1"></use>
                    <path d="M32.1785714,26.7704082 L34.3418367,19.7397959" id="Line" stroke-linecap="square"></path>
                    <path d="M34.6851615,19.7607563 L40.6304053,16.9824278" id="Line-Copy" stroke-linecap="square"></path>
                    <ellipse id="Oval-2" fill="#FFFFFF" cx="15.4132653" cy="28.3928571" rx="0.81122449" ry="0.81122449"></ellipse>
                    <ellipse id="Oval-2-Copy" fill="#FFFFFF" cx="19.1173469" cy="34.3418367" rx="0.81122449" ry="0.81122449"></ellipse>
                    <ellipse id="Oval-2-Copy-2" fill="#FFFFFF" cx="28.3928571" cy="35.9642857" rx="0.81122449" ry="0.81122449"></ellipse>
                    <ellipse id="Oval-2-Copy-3" fill="#FFFFFF" cx="31.6377551" cy="26.7704082" rx="0.81122449" ry="0.81122449"></ellipse>
                    <ellipse id="Oval-2-Copy-4" fill="#FFFFFF" cx="34.3418367" cy="19.7397959" rx="0.81122449" ry="0.81122449"></ellipse>
                    <ellipse id="Oval-2-Copy-5" fill="#FFFFFF" cx="40.8316327" cy="17.0357143" rx="0.81122449" ry="0.81122449"></ellipse>
                    <path d="M44.7334773,28.5089875 C44.0919731,29.1504917 44.5213275,28.7902529 44.5213275,28.7902529 C44.3487641,29.7623558 44.1834194,29.7398836 43.8964203,28.7902529 C43.8964203,28.7902529 44.3257748,29.1504917 43.6842706,28.5089875 C43.0427664,27.8674833 43.4030052,28.2968377 43.4030052,28.2968377 C42.4309023,28.1242744 42.4533745,27.9589296 43.4030052,27.6719305 C43.4030052,27.6719305 43.0427664,28.101285 43.6842706,27.4597808 C44.3257748,26.8182766 43.8964203,27.1785154 43.8964203,27.1785154 C44.0689837,26.2064125 44.2343284,26.2288847 44.5213275,27.1785154 C44.5213275,27.1785154 44.0919731,26.8182766 44.7334773,27.4597808 C45.3749815,28.101285 45.0147427,27.6719305 45.0147427,27.6719305 C45.9868456,27.8444939 45.9643734,28.0098386 45.0147427,28.2968377 C45.0147427,28.2968377 45.3749815,27.8674833 44.7334773,28.5089875 L44.7334773,28.5089875 Z" id="Star-1-Copy-5"></path>
                    <path d="M38.7844977,39.8661303 C38.1429935,40.5076345 38.5723479,40.1473957 38.5723479,40.1473957 C38.3997846,41.1194986 38.2344398,41.0970264 37.9474407,40.1473957 C37.9474407,40.1473957 38.3767952,40.5076345 37.735291,39.8661303 C37.0937868,39.2246261 37.4540256,39.6539806 37.4540256,39.6539806 C36.4819227,39.4814172 36.5043949,39.3160725 37.4540256,39.0290734 C37.4540256,39.0290734 37.0937868,39.4584278 37.735291,38.8169236 C38.3767952,38.1754194 37.9474407,38.5356582 37.9474407,38.5356582 C38.1200041,37.5635553 38.2853488,37.5860275 38.5723479,38.5356582 C38.5723479,38.5356582 38.1429935,38.1754194 38.7844977,38.8169236 C39.4260019,39.4584278 39.0657631,39.0290734 39.0657631,39.0290734 C40.037866,39.2016367 40.0153938,39.3669815 39.0657631,39.6539806 C39.0657631,39.6539806 39.4260019,39.2246261 38.7844977,39.8661303 L38.7844977,39.8661303 Z" id="Star-1-Copy-8"></path>
                    <path d="M24.7232732,46.3559262 C24.081769,46.9974304 24.5111234,46.6371917 24.5111234,46.6371917 C24.3385601,47.6092946 24.1732154,47.5868224 23.8862163,46.6371917 C23.8862163,46.6371917 24.3155707,46.9974304 23.6740665,46.3559262 C23.0325623,45.7144221 23.3928011,46.1437765 23.3928011,46.1437765 C22.4206982,45.9712131 22.4431704,45.8058684 23.3928011,45.5188693 C23.3928011,45.5188693 23.0325623,45.9482237 23.6740665,45.3067195 C24.3155707,44.6652154 23.8862163,45.0254541 23.8862163,45.0254541 C24.0587796,44.0533512 24.2241243,44.0758234 24.5111234,45.0254541 C24.5111234,45.0254541 24.081769,44.6652154 24.7232732,45.3067195 C25.3647774,45.9482237 25.0045386,45.5188693 25.0045386,45.5188693 C25.9766415,45.6914327 25.9541693,45.8567774 25.0045386,46.1437765 C25.0045386,46.1437765 25.3647774,45.7144221 24.7232732,46.3559262 L24.7232732,46.3559262 Z" id="Star-1-Copy-6"></path>
                    <path d="M9.03959972,37.1620487 C8.39809552,37.8035529 8.82744994,37.4433141 8.82744994,37.4433141 C8.6548866,38.415417 8.48954188,38.3929448 8.20254279,37.4433141 C8.20254279,37.4433141 8.63189721,37.8035529 7.99039301,37.1620487 C7.34888882,36.5205445 7.70912761,36.9498989 7.70912761,36.9498989 C6.7370247,36.7773356 6.7594969,36.6119909 7.70912761,36.3249918 C7.70912761,36.3249918 7.34888882,36.7543462 7.99039301,36.112842 C8.63189721,35.4713378 8.20254279,35.8315766 8.20254279,35.8315766 C8.37510613,34.8594737 8.54045085,34.8819459 8.82744994,35.8315766 C8.82744994,35.8315766 8.39809552,35.4713378 9.03959972,36.112842 C9.68110391,36.7543462 9.32086512,36.3249918 9.32086512,36.3249918 C10.292968,36.4975551 10.2704958,36.6628998 9.32086512,36.9498989 C9.32086512,36.9498989 9.68110391,36.5205445 9.03959972,37.1620487 L9.03959972,37.1620487 Z" id="Star-1-Copy-4"></path>
                    <path d="M31.7232732,7.25388543 C31.081769,7.89538962 31.5111234,7.53515084 31.5111234,7.53515084 C31.3385601,8.50725374 31.1732154,8.48478154 30.8862163,7.53515084 C30.8862163,7.53515084 31.3155707,7.89538962 30.6740665,7.25388543 C30.0325623,6.61238124 30.3928011,7.04173566 30.3928011,7.04173566 C29.4206982,6.86917231 29.4431704,6.7038276 30.3928011,6.4168285 C30.3928011,6.4168285 30.0325623,6.84618292 30.6740665,6.20467873 C31.3155707,5.56317453 30.8862163,5.92341332 30.8862163,5.92341332 C31.0587796,4.95131041 31.2241243,4.97378262 31.5111234,5.92341332 C31.5111234,5.92341332 31.081769,5.56317453 31.7232732,6.20467873 C32.3647774,6.84618292 32.0045386,6.4168285 32.0045386,6.4168285 C32.9766415,6.58939185 32.9541693,6.75473656 32.0045386,7.04173566 C32.0045386,7.04173566 32.3647774,6.61238124 31.7232732,7.25388543 L31.7232732,7.25388543 Z" id="Star-1-Copy-2"></path>
                    <ellipse id="Oval-1" cx="26.5" cy="26.5" rx="26.5" ry="26.5"></ellipse>
                </g>
            </g>
        </g>
    </g>
</svg>