<?xml version="1.0" encoding="UTF-8" standalone="no"?>
<svg width="55px" height="55px" viewBox="0 0 55 55" version="1.1" xmlns="http://www.w3.org/2000/svg" xmlns:xlink="http://www.w3.org/1999/xlink">
    <!-- Generator: Sketch 3.7.2 (28276) - http://www.bohemiancoding.com/sketch -->
    <title>Shower Group</title>
    <desc>Created with Sketch.</desc>
    <defs></defs>
    <g id="Desktop" stroke="none" stroke-width="1" fill="none" fill-rule="evenodd">
        <g id="2nd-View" transform="translate(-207.000000, -568.000000)" stroke="#4D158F">
            <g id="Meteor-Shower-Copy" transform="translate(208.000000, 569.000000)">
                <g id="Shower-Group">
                    <path d="M18.1328006,21.1328006 C16.7464571,22.5191441 17.6743275,21.7406384 17.6743275,21.7406384 C17.3014038,23.8414329 16.9440803,23.7928687 16.3238515,21.7406384 C16.3238515,21.7406384 17.2517219,22.5191441 15.8653784,21.1328006 C14.4790349,19.7464571 15.2575406,20.6743275 15.2575406,20.6743275 C13.156746,20.3014038 13.2053103,19.9440803 15.2575406,19.3238515 C15.2575406,19.3238515 14.4790349,20.2517219 15.8653784,18.8653784 C17.2517219,17.4790349 16.3238515,18.2575406 16.3238515,18.2575406 C16.6967752,16.156746 17.0540987,16.2053103 17.6743275,18.2575406 C17.6743275,18.2575406 16.7464571,17.4790349 18.1328006,18.8653784 C19.5191441,20.2517219 18.7406384,19.3238515 18.7406384,19.3238515 C20.8414329,19.6967752 20.7928687,20.0540987 18.7406384,20.6743275 C18.7406384,20.6743275 19.5191441,19.7464571 18.1328006,21.1328006 L18.1328006,21.1328006 Z" id="Star-1" transform="translate(16.999089, 19.999089) rotate(-14.000000) translate(-16.999089, -19.999089) "></path>
                    <path d="M17.1328006,38.1328006 C15.7464571,39.5191441 16.6743275,38.7406384 16.6743275,38.7406384 C16.3014038,40.8414329 15.9440803,40.7928687 15.3238515,38.7406384 C15.3238515,38.7406384 16.2517219,39.5191441 14.8653784,38.1328006 C13.4790349,36.7464571 14.2575406,37.6743275 14.2575406,37.6743275 C12.156746,37.3014038 12.2053103,36.9440803 14.2575406,36.3238515 C14.2575406,36.3238515 13.4790349,37.2517219 14.8653784,35.8653784 C16.2517219,34.4790349 15.3238515,35.2575406 15.3238515,35.2575406 C15.6967752,33.156746 16.0540987,33.2053103 16.6743275,35.2575406 C16.6743275,35.2575406 15.7464571,34.4790349 17.1328006,35.8653784 C18.5191441,37.2517219 17.7406384,36.3238515 17.7406384,36.3238515 C19.8414329,36.6967752 19.7928687,37.0540987 17.7406384,37.6743275 C17.7406384,37.6743275 18.5191441,36.7464571 17.1328006,38.1328006 L17.1328006,38.1328006 Z" id="Star-1-Copy" transform="translate(15.999089, 36.999089) rotate(-14.000000) translate(-15.999089, -36.999089) "></path>
                    <path d="M31.1328006,39.1328006 C29.7464571,40.5191441 30.6743275,39.7406384 30.6743275,39.7406384 C30.3014038,41.8414329 29.9440803,41.7928687 29.3238515,39.7406384 C29.3238515,39.7406384 30.2517219,40.5191441 28.8653784,39.1328006 C27.4790349,37.7464571 28.2575406,38.6743275 28.2575406,38.6743275 C26.156746,38.3014038 26.2053103,37.9440803 28.2575406,37.3238515 C28.2575406,37.3238515 27.4790349,38.2517219 28.8653784,36.8653784 C30.2517219,35.4790349 29.3238515,36.2575406 29.3238515,36.2575406 C29.6967752,34.156746 30.0540987,34.2053103 30.6743275,36.2575406 C30.6743275,36.2575406 29.7464571,35.4790349 31.1328006,36.8653784 C32.5191441,38.2517219 31.7406384,37.3238515 31.7406384,37.3238515 C33.8414329,37.6967752 33.7928687,38.0540987 31.7406384,38.6743275 C31.7406384,38.6743275 32.5191441,37.7464571 31.1328006,39.1328006 L31.1328006,39.1328006 Z" id="Star-1-Copy-7" transform="translate(29.999089, 37.999089) rotate(-14.000000) translate(-29.999089, -37.999089) "></path>
                    <path d="M8.05114685,20.0511468 C7.40964266,20.692651 7.83899708,20.3324123 7.83899708,20.3324123 C7.66643373,21.3045152 7.50108902,21.282043 7.21408992,20.3324123 C7.21408992,20.3324123 7.64344434,20.692651 7.00194014,20.0511468 C6.36043595,19.4096427 6.72067474,19.8389971 6.72067474,19.8389971 C5.74857183,19.6664337 5.77104403,19.501089 6.72067474,19.2140899 C6.72067474,19.2140899 6.36043595,19.6434443 7.00194014,19.0019401 C7.64344434,18.360436 7.21408992,18.7206747 7.21408992,18.7206747 C7.38665326,17.7485718 7.55199798,17.771044 7.83899708,18.7206747 C7.83899708,18.7206747 7.40964266,18.360436 8.05114685,19.0019401 C8.69265104,19.6434443 8.33241226,19.2140899 8.33241226,19.2140899 C9.30451516,19.3866533 9.28204296,19.551998 8.33241226,19.8389971 C8.33241226,19.8389971 8.69265104,19.4096427 8.05114685,20.0511468 L8.05114685,20.0511468 Z" id="Star-1-Copy-3"></path>
                    <path d="M24.0511468,47.0511468 C23.4096427,47.692651 23.8389971,47.3324123 23.8389971,47.3324123 C23.6664337,48.3045152 23.501089,48.282043 23.2140899,47.3324123 C23.2140899,47.3324123 23.6434443,47.692651 23.0019401,47.0511468 C22.360436,46.4096427 22.7206747,46.8389971 22.7206747,46.8389971 C21.7485718,46.6664337 21.771044,46.501089 22.7206747,46.2140899 C22.7206747,46.2140899 22.360436,46.6434443 23.0019401,46.0019401 C23.6434443,45.360436 23.2140899,45.7206747 23.2140899,45.7206747 C23.3866533,44.7485718 23.551998,44.771044 23.8389971,45.7206747 C23.8389971,45.7206747 23.4096427,45.360436 24.0511468,46.0019401 C24.692651,46.6434443 24.3324123,46.2140899 24.3324123,46.2140899 C25.3045152,46.3866533 25.282043,46.551998 24.3324123,46.8389971 C24.3324123,46.8389971 24.692651,46.4096427 24.0511468,47.0511468 L24.0511468,47.0511468 Z" id="Star-1-Copy-5"></path>
                    <path d="M43.0511468,11.0511468 C42.4096427,11.692651 42.8389971,11.3324123 42.8389971,11.3324123 C42.6664337,12.3045152 42.501089,12.282043 42.2140899,11.3324123 C42.2140899,11.3324123 42.6434443,11.692651 42.0019401,11.0511468 C41.360436,10.4096427 41.7206747,10.8389971 41.7206747,10.8389971 C40.7485718,10.6664337 40.771044,10.501089 41.7206747,10.2140899 C41.7206747,10.2140899 41.360436,10.6434443 42.0019401,10.0019401 C42.6434443,9.36043595 42.2140899,9.72067474 42.2140899,9.72067474 C42.3866533,8.74857183 42.551998,8.77104403 42.8389971,9.72067474 C42.8389971,9.72067474 42.4096427,9.36043595 43.0511468,10.0019401 C43.692651,10.6434443 43.3324123,10.2140899 43.3324123,10.2140899 C44.3045152,10.3866533 44.282043,10.551998 43.3324123,10.8389971 C43.3324123,10.8389971 43.692651,10.4096427 43.0511468,11.0511468 L43.0511468,11.0511468 Z" id="Star-1-Copy-2"></path>
                    <ellipse id="Oval-1" cx="26.5" cy="26.5" rx="26.5" ry="26.5"></ellipse>
                    <path d="M18.5,33.5 L30.5,21.5" id="Line" stroke-linecap="round"></path>
                    <path d="M20.5,16.5 L32.5,4.5" id="Line-Copy-2" stroke-linecap="round"></path>
                    <path d="M32.5,33.5 L44.5,21.5" id="Line-Copy-4" stroke-linecap="round"></path>
                    <path d="M22.5,33.5 L30.8583336,25.1416664" id="Line-Copy" stroke-linecap="round"></path>
                    <path d="M24.5,16.5 L32.8583336,8.14166637" id="Line-Copy-3" stroke-linecap="round"></path>
                    <path d="M36,34.3583336 L44.3583336,26" id="Line-Copy-5" stroke-linecap="round"></path>
                </g>
            </g>
        </g>
    </g>
</svg>